<?xml version="1.0" encoding="iso-8859-1"?>
<!-- Generator: Adobe Illustrator 19.0.0, SVG Export Plug-In . SVG Version: 6.00 Build 0)  -->
<svg xmlns="http://www.w3.org/2000/svg" xmlns:xlink="http://www.w3.org/1999/xlink" version="1.1" id="Layer_1" x="0px" y="0px" viewBox="0 0 395 395" style="enable-background:new 0 0 395 395;" xml:space="preserve" width="512" height="512">
<g>
	<path style="fill:#F2F2F2;" d="M290.693,117.499l-21.75,270h-44.61l2.72-89.8c14.73-9.64,24.45-26.28,24.45-45.2   c0-17.75-8.56-33.49-21.78-43.33l0.01-0.01l2.77-91.66H290.693z"/>
	<path style="fill:#F2F2F2;" d="M167.953,297.709l2.71,89.79h-44.62l-21.74-270h58.2l2.77,91.65l0.01,0.01   c-13.22,9.84-21.79,25.59-21.79,43.34C143.493,271.419,153.223,288.069,167.953,297.709z"/>
	<path style="fill:#F7B239;" d="M229.723,209.169c13.22,9.84,21.78,25.58,21.78,43.33c0,18.92-9.72,35.56-24.45,45.2   c-8.49,5.57-18.65,8.8-29.56,8.8c-10.9,0-21.06-3.23-29.54-8.79c-14.73-9.64-24.46-26.29-24.46-45.21   c0-17.75,8.57-33.5,21.79-43.34c8.99-6.7,20.14-10.66,32.21-10.66C209.563,198.499,220.723,202.469,229.723,209.169z"/>
	<path style="fill:#F7B239;" d="M76.143,62.249c-1.2-2.93-1.86-6.14-1.86-9.5c0-13.82,11.2-25.03,25.03-25.03   c6.93,0,13.2,2.82,17.74,7.37c4.46-12.98,16.77-22.32,31.27-22.32c9.83,0,18.66,4.29,24.71,11.11c3.53-9.56,12.72-16.38,23.5-16.38   c11.4,0,21.01,7.63,24.04,18.05c6.05-7.77,15.49-12.78,26.1-12.78c14.5,0,26.82,9.34,31.28,22.32c4.53-4.55,10.8-7.37,17.74-7.37   c13.82,0,25.03,11.21,25.03,25.03c0,3.36-0.67,6.57-1.87,9.5c16.89,1.48,30.14,15.65,30.14,32.93c0,8.6-3.29,16.44-8.68,22.32   h-49.62h-58.19h-70h-58.2h-49.62c-5.38-5.88-8.67-13.72-8.67-22.32C46.013,77.899,59.253,63.729,76.143,62.249z"/>
	<g>
		<path style="fill:#E09B2D;" d="M148.139,62.249c-1.2-2.93-1.86-6.14-1.86-9.5c0-13.82,11.2-25.03,25.03-25.03    c6.93,0,13.2,2.82,17.74,7.37c3.675-10.696,12.687-18.906,23.856-21.469c-4.389-3.807-10.106-6.121-16.372-6.121    c-10.78,0-19.97,6.82-23.5,16.38c-6.05-6.82-14.88-11.11-24.71-11.11c-14.5,0-26.81,9.34-31.27,22.32    c-4.54-4.55-10.81-7.37-17.74-7.37c-13.83,0-25.03,11.21-25.03,25.03c0,3.36,0.66,6.57,1.86,9.5    c-16.89,1.48-30.13,15.65-30.13,32.93c0,8.6,3.29,16.44,8.67,22.32h49.62h22.376c-5.38-5.88-8.67-13.72-8.67-22.32    C118.009,77.899,131.249,63.729,148.139,62.249z"/>
		<path style="fill:#E09B2D;" d="M245.029,23.879c1.535-4.157,4.142-7.793,7.482-10.579c-1.897-0.339-3.844-0.531-5.839-0.531    c-4.686,0-9.142,0.98-13.181,2.741C237.928,17.441,241.862,20.309,245.029,23.879z"/>
	</g>
	<polygon style="fill:#E54728;" points="104.303,117.499 126.043,387.499 87.763,387.499 54.363,117.499 54.683,117.499  "/>
	<path style="fill:#F95428;" d="M227.053,297.699l-2.72,89.8h-53.67l-2.71-89.79c8.48,5.56,18.64,8.79,29.54,8.79   C208.403,306.499,218.563,303.269,227.053,297.699z"/>
	<path style="fill:#F95428;" d="M232.503,117.499l-2.77,91.66l-0.01,0.01c-9-6.7-20.16-10.67-32.23-10.67   c-12.07,0-23.22,3.96-32.21,10.66l-0.01-0.01l-2.77-91.65H232.503z"/>
	<polygon style="fill:#F95428;" points="340.633,117.499 307.233,387.499 268.943,387.499 290.693,117.499 340.313,117.499  "/>
	<path style="fill:#FFFFFF;" d="M292.388,327.74c-0.308,0-0.618-0.019-0.931-0.057c-4.11-0.509-7.031-4.253-6.522-8.364   l18.729-151.403c0.509-4.111,4.26-7.031,8.364-6.523c4.11,0.509,7.031,4.253,6.522,8.364L299.821,321.16   C299.352,324.959,296.119,327.74,292.388,327.74z"/>
	<circle style="fill:#FFFFFF;" cx="314.503" cy="140.269" r="7.5"/>
	<g>
		<path style="fill:#333333;" d="M356.49,95.18c0-18.224-11.766-33.624-28.478-38.749c0.138-1.217,0.207-2.445,0.207-3.681    c0-17.937-14.593-32.53-32.53-32.53c-5.284,0-10.372,1.249-14.931,3.609C273.405,12.444,260.658,5.27,246.67,5.27    c-8.806,0-17.161,2.793-24.042,7.88C216.597,5.083,206.967,0,196.53,0c-10.035,0-19.362,4.681-25.44,12.271    c-6.656-4.518-14.58-7.001-22.77-7.001c-13.984,0-26.729,7.176-34.081,18.562c-4.562-2.361-9.65-3.612-14.929-3.612    c-17.937,0-32.53,14.593-32.53,32.53c0,1.237,0.068,2.465,0.205,3.679C50.276,61.553,38.51,76.954,38.51,95.18    c0,9.117,3.049,17.877,8.628,24.997l33.177,268.244c0.465,3.758,3.657,6.579,7.443,6.579h219.476c3.786,0,6.979-2.822,7.443-6.579    l33.177-268.245C353.438,113.059,356.49,104.3,356.49,95.18z M72.174,70.552c3.962,5.668,11.057,11.641,21.488,11.641    c1.089,0,2.214-0.065,3.376-0.202c3.924-0.464,7.074-3.727,6.961-7.677c-0.13-4.527-4.117-7.831-8.49-7.249    c-8.415,1.125-11.775-6.039-12.373-7.52c-0.01-0.025-0.022-0.048-0.032-0.073c-0.009-0.021-0.013-0.044-0.022-0.065    c-0.601-1.466-0.995-2.997-1.18-4.571c-1.153-9.839,6.288-18.899,16.171-19.575c5.107-0.349,9.975,1.472,13.583,5.04    c1.403,1.388,3.278,2.26,5.251,2.289c3.334,0.049,6.199-2.046,7.236-5.064c3.547-10.322,13.263-17.257,24.177-17.257    c7.277,0,14.221,3.113,19.06,8.544c1.334,1.497,3.219,2.451,5.222,2.557c3.374,0.178,6.344-1.861,7.464-4.893    C182.6,19.613,189.217,15,196.53,15c7.675,0,14.541,5.1,16.774,12.431c0.651,2.136,2.074,4.002,4.106,4.928    c3.269,1.488,6.978,0.495,9.077-2.2c4.894-6.284,12.251-9.888,20.184-9.888c9.659,0,18.37,5.431,22.71,13.826    c-1.381,2.191-2.907,5.154-3.886,8.706c-2.827,10.262,0.264,20.561,8.702,29C275.661,73.268,277.581,74,279.5,74    c1.886,0,3.772-0.707,5.227-2.121c3.015-2.93,2.761-7.928-0.175-10.938c-4.338-4.447-5.877-8.944-4.704-13.74    c0.127-0.519,0.279-1.019,0.449-1.496c1.434-4.039,4.511-7.357,8.444-9.058c2.72-1.176,5.739-1.652,8.836-1.33    c8.824,0.917,15.655,8.584,15.643,17.455c-0.003,2.275-0.439,4.497-1.298,6.603c-0.673,1.65-0.76,3.516-0.201,5.208    c0.962,2.911,3.534,4.88,6.475,5.138c13.063,1.145,23.295,12.327,23.295,25.459c0,5.36-1.688,10.512-4.767,14.82H58.271    c-3.075-4.311-4.761-9.463-4.761-14.82C53.51,83.43,61.265,73.547,72.174,70.552z M197.497,299.003    c-25.642,0-46.503-20.861-46.503-46.503s20.861-46.503,46.503-46.503c25.642,0,46.503,20.861,46.503,46.503    S223.139,299.003,197.497,299.003z M197.497,190.997c-8.942,0-17.437,1.934-25.11,5.381L170.23,125h54.541l-2.158,71.38    C214.937,192.932,206.441,190.997,197.497,190.997z M155.223,125l2.439,80.696c-13.245,11.29-21.668,28.077-21.668,46.804    c0,20.064,9.66,37.912,24.571,49.146L162.93,380h-29.962l-20.535-255H155.223z M175.826,310.049    c6.745,2.548,14.045,3.954,21.671,3.954c7.628,0,14.93-1.406,21.676-3.956L217.054,380h-39.117L175.826,310.049z M234.433,301.642    C249.342,290.408,259,272.562,259,252.5c0-18.724-8.421-35.509-21.662-46.799L239.776,125h42.784l-20.535,255H232.06    L234.433,301.642z M62.849,125h34.535l20.535,255H94.388L62.849,125z M300.604,380h-23.531l20.535-255h34.536L300.604,380z"/>
		<path style="fill:#333333;" d="M167.164,100.524c4.142,0,7.5-3.358,7.5-7.5s-3.358-7.5-7.5-7.5c-6.893,0-12.5-5.607-12.5-12.5    s5.607-12.5,12.5-12.5c4.454,0,8.476,2.307,10.758,6.171c1.19,2.015,3.253,3.359,5.577,3.634c2.326,0.276,4.644-0.551,6.271-2.232    c3.122-3.226,7.308-5.002,11.786-5.002c9.046,0,16.405,7.359,16.405,16.406c0,4.142,3.357,7.5,7.5,7.5s7.5-3.358,7.5-7.5    c0-17.317-14.088-31.406-31.405-31.406c-5.774,0-11.293,1.54-16.105,4.429c-4.978-4.432-11.484-7-18.286-7    c-15.164,0-27.5,12.336-27.5,27.5S152,100.524,167.164,100.524z"/>
	</g>
</g>















</svg>
